<svg xmlns="http://www.w3.org/2000/svg" viewBox="0 0 720 420" fill="none">
  <rect width="720" height="420" rx="16" fill="#F8FAFC"/>
  <text x="360" y="36" text-anchor="middle" font-family="Segoe UI, sans-serif" font-size="18" font-weight="600" fill="#0F172A">AI Enterprise Starter Architecture (V1)</text>

  <rect x="280" y="60" width="160" height="48" rx="8" fill="#DBEAFE" stroke="#2563EB"/>
  <text x="360" y="90" text-anchor="middle" font-family="Segoe UI, sans-serif" font-size="14" fill="#1E40AF">starter-demo</text>

  <rect x="280" y="140" width="160" height="48" rx="8" fill="#DBEAFE" stroke="#2563EB"/>
  <text x="360" y="170" text-anchor="middle" font-family="Segoe UI, sans-serif" font-size="14" fill="#1E40AF">starter-web (REST)</text>

  <line x1="360" y1="108" x2="360" y2="140" stroke="#64748B" stroke-width="2"/>

  <rect x="40" y="230" width="130" height="44" rx="8" fill="#E0E7FF" stroke="#4F46E5"/>
  <text x="105" y="257" text-anchor="middle" font-family="Segoe UI, sans-serif" font-size="13" fill="#312E81">starter-auth</text>

  <rect x="200" y="230" width="130" height="44" rx="8" fill="#E0E7FF" stroke="#4F46E5"/>
  <text x="265" y="257" text-anchor="middle" font-family="Segoe UI, sans-serif" font-size="13" fill="#312E81">starter-ai</text>

  <rect x="360" y="230" width="130" height="44" rx="8" fill="#E0E7FF" stroke="#4F46E5"/>
  <text x="425" y="257" text-anchor="middle" font-family="Segoe UI, sans-serif" font-size="13" fill="#312E81">starter-mcp</text>

  <rect x="520" y="230" width="160" height="44" rx="8" fill="#E0E7FF" stroke="#4F46E5"/>
  <text x="600" y="257" text-anchor="middle" font-family="Segoe UI, sans-serif" font-size="13" fill="#312E81">starter-agent</text>

  <line x1="360" y1="188" x2="105" y2="230" stroke="#64748B" stroke-width="2"/>
  <line x1="360" y1="188" x2="265" y2="230" stroke="#64748B" stroke-width="2"/>
  <line x1="360" y1="188" x2="425" y2="230" stroke="#64748B" stroke-width="2"/>
  <line x1="360" y1="188" x2="600" y2="230" stroke="#64748B" stroke-width="2"/>

  <rect x="280" y="310" width="160" height="44" rx="8" fill="#DCFCE7" stroke="#16A34A"/>
  <text x="360" y="337" text-anchor="middle" font-family="Segoe UI, sans-serif" font-size="13" fill="#14532D">starter-common</text>

  <line x1="105" y1="274" x2="360" y2="310" stroke="#64748B" stroke-width="1.5"/>
  <line x1="265" y1="274" x2="360" y2="310" stroke="#64748B" stroke-width="1.5"/>
  <line x1="425" y1="274" x2="360" y2="310" stroke="#64748B" stroke-width="1.5"/>
  <line x1="600" y1="274" x2="360" y2="310" stroke="#64748B" stroke-width="1.5"/>

  <rect x="80" y="370" width="120" height="36" rx="6" fill="#FEF3C7" stroke="#D97706"/>
  <text x="140" y="393" text-anchor="middle" font-family="Segoe UI, sans-serif" font-size="12" fill="#92400E">PostgreSQL</text>

  <rect x="300" y="370" width="120" height="36" rx="6" fill="#FEF3C7" stroke="#D97706"/>
  <text x="360" y="393" text-anchor="middle" font-family="Segoe UI, sans-serif" font-size="12" fill="#92400E">Redis</text>

  <rect x="520" y="370" width="120" height="36" rx="6" fill="#FEF3C7" stroke="#D97706"/>
  <text x="580" y="393" text-anchor="middle" font-family="Segoe UI, sans-serif" font-size="12" fill="#92400E">DashScope</text>

  <line x1="265" y1="274" x2="140" y2="370" stroke="#CBD5E1" stroke-width="1.5" stroke-dasharray="4"/>
  <line x1="265" y1="274" x2="360" y2="370" stroke="#CBD5E1" stroke-width="1.5" stroke-dasharray="4"/>
  <line x1="265" y1="274" x2="580" y2="370" stroke="#CBD5E1" stroke-width="1.5" stroke-dasharray="4"/>
</svg>
